<svg xmlns="http://www.w3.org/2000/svg" width="1280" height="360" viewBox="0 0 1280 360"><defs><marker id="a" markerWidth="8" markerHeight="8" refX="7" refY="4" orient="auto"><path d="M0 0L8 4L0 8Z" fill="#66788c"/></marker><style>.t{font:700 17px Inter,'Noto Sans SC',sans-serif;fill:#162232}.s{font:500 12px Inter,'Noto Sans SC',sans-serif;fill:#56677a}.m{font:700 10px ui-monospace,monospace;fill:#718096}.l{stroke:#66788c;stroke-width:2;marker-end:url(#a)}</style></defs><rect width="1280" height="360" fill="#fff"/><text x="48" y="45" class="m">CMIX HIGH-RATIO EXPERIMENTAL ROUTE</text><rect x="48" y="82" width="180" height="90" fill="#edf6f4" stroke="#73a89e"/><text x="138" y="118" text-anchor="middle" class="t">Preprocessing</text><text x="138" y="145" text-anchor="middle" class="s">type-specific transforms</text><line x1="228" y1="127" x2="278" y2="127" class="l"/><rect x="278" y="70" width="220" height="114" fill="#f2f5ea" stroke="#91a76b"/><text x="388" y="108" text-anchor="middle" class="t">Model ensemble</text><text x="388" y="135" text-anchor="middle" class="s">context predictors</text><text x="388" y="157" text-anchor="middle" class="s">format-specific models</text><line x1="498" y1="127" x2="548" y2="127" class="l"/><rect x="548" y="82" width="180" height="90" fill="#f7f2e9" stroke="#b89359"/><text x="638" y="118" text-anchor="middle" class="t">Mixers</text><text x="638" y="145" text-anchor="middle" class="s">context-selected weights</text><line x1="728" y1="127" x2="778" y2="127" class="l"/><rect x="778" y="70" width="200" height="114" fill="#f4eef7" stroke="#a487b5"/><text x="878" y="108" text-anchor="middle" class="t">SSE / neural</text><text x="878" y="135" text-anchor="middle" class="s">probability calibration</text><text x="878" y="157" text-anchor="middle" class="s">resource-intensive state</text><line x1="978" y1="127" x2="1028" y2="127" class="l"/><rect x="1028" y="82" width="200" height="90" fill="#eef5fb" stroke="#7aa4c8"/><text x="1128" y="118" text-anchor="middle" class="t">Entropy coder</text><text x="1128" y="145" text-anchor="middle" class="s">compressed stream</text><rect x="278" y="232" width="700" height="70" fill="#f5f7fa" stroke="#cbd5df" stroke-dasharray="6 5"/><text x="628" y="260" text-anchor="middle" class="t">Evaluation requirement</text><text x="628" y="285" text-anchor="middle" class="s">record revision, build flags, command, memory, and encode/decode time</text></svg>

