<svg xmlns="http://www.w3.org/2000/svg" width="1280" height="360" viewBox="0 0 1280 360"><defs><marker id="a" markerWidth="8" markerHeight="8" refX="7" refY="4" orient="auto"><path d="M0 0L8 4L0 8Z" fill="#66788c"/></marker><style>.t{font:700 17px Inter,'Noto Sans SC',sans-serif;fill:#162232}.s{font:500 12px Inter,'Noto Sans SC',sans-serif;fill:#56677a}.m{font:700 10px ui-monospace,monospace;fill:#718096}.b{fill:#fff;stroke:#b9c6d5;stroke-width:1.5}.l{stroke:#66788c;stroke-width:2;marker-end:url(#a)}</style></defs><rect width="1280" height="360" fill="#fff"/><text x="48" y="45" class="m">gzip WRAPPER + DEFLATE PAYLOAD</text><rect x="48" y="82" width="170" height="90" class="b"/><text x="133" y="118" text-anchor="middle" class="t">gzip header</text><text x="133" y="145" text-anchor="middle" class="s">flags · optional fields</text><line x1="218" y1="127" x2="268" y2="127" class="l"/><rect x="268" y="70" width="210" height="114" fill="#eef5fb" stroke="#7aa4c8"/><text x="373" y="108" text-anchor="middle" class="t">DEFLATE block</text><text x="373" y="135" text-anchor="middle" class="s">stored / fixed / dynamic</text><text x="373" y="157" text-anchor="middle" class="s">BFINAL + BTYPE</text><line x1="478" y1="127" x2="528" y2="127" class="l"/><rect x="528" y="82" width="190" height="90" fill="#edf6f4" stroke="#73a89e"/><text x="623" y="118" text-anchor="middle" class="t">LZ77 parse</text><text x="623" y="145" text-anchor="middle" class="s">literal / length-distance</text><line x1="718" y1="127" x2="768" y2="127" class="l"/><rect x="768" y="82" width="190" height="90" fill="#f7f2e9" stroke="#b89359"/><text x="863" y="118" text-anchor="middle" class="t">Huffman</text><text x="863" y="145" text-anchor="middle" class="s">fixed or transmitted tree</text><line x1="958" y1="127" x2="1008" y2="127" class="l"/><rect x="1008" y="82" width="220" height="90" fill="#f3f6f9" stroke="#b9c6d5"/><text x="1118" y="118" text-anchor="middle" class="t">gzip trailer</text><text x="1118" y="145" text-anchor="middle" class="s">CRC32 · ISIZE</text><rect x="268" y="232" width="690" height="70" fill="#f5f7fa" stroke="#cbd5df" stroke-dasharray="6 5"/><text x="613" y="260" text-anchor="middle" class="t">Decoder</text><text x="613" y="285" text-anchor="middle" class="s">Huffman decode → reproduce literals/matches → verify wrapper checksum</text></svg>

